<svg xmlns="http://www.w3.org/2000/svg" viewBox="0 0 548 548">
  
  <path d="m441.3 441.3c-2.8 24.6-14.6 46.2-31.9 61.7 -17.3 15.5-40.1 24.8-64.9 24.8 -11.4 0-22.6-2-33.3-5.9 -10.4-3.8-28.3-15.5-37.3-23 -9 7.4-27 19.2-37.3 23 -10.7 3.9-21.9 5.9-33.3 5.9 -24.7 0-47.5-9.3-64.9-24.8 -17.3-15.5-29.1-37.1-31.9-61.7 -24.6-2.8-46.2-14.6-61.7-31.9 -15.5-17.3-24.8-40.1-24.8-64.9 0-11.4 2-22.6 5.9-33.3 3.8-10.4 15.5-28.3 23-37.3 -7.4-9-19.2-27-23-37.3 -3.9-10.7-5.9-21.9-5.9-33.3 0-24.7 9.3-47.5 24.8-64.9 15.5-17.3 37.1-29.1 61.7-31.9 2.8-24.6 14.6-46.2 31.9-61.7 17.3-15.5 40.1-24.8 64.9-24.8 11.4 0 22.6 2 33.3 5.9 10.4 3.8 28.3 15.5 37.3 23 9-7.4 27-19.2 37.3-23 10.7-3.9 21.9-5.9 33.3-5.9 24.7 0 47.5 9.3 64.9 24.8 17.3 15.5 29.1 37.1 31.9 61.7 24.6 2.8 46.2 14.6 61.7 31.9 15.5 17.3 24.8 40.1 24.8 64.9 0 11.4-2 22.6-5.9 33.3 -3.8 10.4-15.5 28.3-23 37.3 7.4 9 19.2 27 23 37.3 3.9 10.7 5.9 21.9 5.9 33.3 0 24.7-9.3 47.5-24.8 64.9 -15.5 17.3-37.1 29.1-61.7 31.9zm-339.3-175.4l57.5 3.3 0.1 0 0.3 0 0.3 0 0.3 0 0.3 0 0.3 0 0.3 0 0.3 0 0.3 0 0.3 0 0.3 0 0.3 0 0.3 0 0.3 0 0.3 0 0.3 0 0.3 0 0.3 0 0.3 0 0.3 0 0.3 0 0.3 0 0.3 0 0.3 0 0.3 0 0.3 0 0.3 0 0.3 0 0.3 0 0.3 0 0.3 0 0.3 0 0.3 0 0.3 0 0.3 0 0.3 0 0.3 0 0.3 0 0.3 0 0.3 0 0.3 0 0.3 0 0.3 0 0.3 0 0.3 0 0.3 0 0.3 0 0.3 0 0.3 0 0.3 0 0.3 0 0.3 0 0.3 0 0.3 0 0.3 0 0.3 0 0.3 0 0.3 0 0.3 0 0.3 0 0.3 0 0.3 0 0.3 0 0.3 0 0.3 0 1 0.1 1 0.1 1 0.1 1 0.1 1 0.1 1 0.1 1 0.1 1 0.1 1 0.1 1 0.1 1 0.1 1 0.1 1 0.1 1 0.1 1 0.1 1 0.1 1 0.1 1 0.1 1 0.1 1 0.1 1 0.1 1 0.1 1 0.1 1 0.1 1 0.1 1 0.1 1 0.1 1 0.1 1 0.1 1 0.1 1 0.1 1 0.1 1 0.1 1 0.1 1 0.1 1 0.1 1 0.1 1 0.1 1 0.1 1 0.1 1 0.1 1 0.1 1 0.1 1 0.1 1 0.1 1 0.1 1 0.1 1 0.1 1 0.1 1 0.1 1 0.1 1 0.1 1 0.1 1 0.1 1 0.1 1 0.1 1 0.1 1 0.1 1 0.1 1 0.1 1 0.1 1 0.1 1 0.1 1 0.1 -1 0.1 -1 0.1 -1 0.1 -1 0.1 -1 0.1 -1 0.1 -1 0.1 -1 0.1 -1 0.1 -1 0.1 -1 0.1 -1 0.1 -1 0.1 -1 0.1 -1 0.1 -1 0.1 -1 0.1 -1 0.1 -1 0.1 -1 0.1 -1 0.1 -1 0.1 -1 0.1 -1 0.1 -1 0.1 -1 0.1 -1 0.1 -1 0.1 -1 0.1 -1 0.1 -1 0.1 -1 0.1 -1 0.1 -1 0.1 -1 0.1 -1 0.1 -1 0.1 -1 0.1 -1 0.1 -1 0.1 -1 0.1 -1 0.1 -1 0.1 -1 0.1 -1 0.1 -1 0.1 -1 0.1 -1 0.1 -1 0.1 -1 0.1 -1 0.1 -1 0.1 -1 0.1 -1 0.1 -1 0.1 -1 0.1 -1 0.1 -1 0.1 -1 0.1 -1 0.1 -1 0.1 -1 0.1 -1 0.1 -1 0.1 -0.3 0 -0.3 0 -0.3 0 -0.3 0 -0.3 0 -0.3 0 -0.3 0 -0.3 0 -0.3 0 -0.3 0 -0.3 0 -0.3 0 -0.3 0 -0.3 0 -0.3 0 -0.3 0 -0.3 0 -0.3 0 -0.3 0 -0.3 0 -0.3 0 -0.3 0 -0.3 0 -0.3 0 -0.3 0 -0.3 0 -0.3 0 -0.3 0 -0.3 0 -0.3 0 -0.3 0 -0.3 0 -0.3 0 -0.3 0 -0.3 0 -0.3 0 -0.3 0 -0.3 0 -0.3 0 -0.3 0 -0.3 0 -0.3 0 -0.3 0 -0.3 0 -0.3 0 -0.3 0 -0.3 0 -0.3 0 -0.3 0 -0.3 0 -0.3 0 -0.3 0 -0.3 0 -0.3 0 -0.3 0 -0.3 0 -0.3 0 -0.3 0 -0.3 0 -0.3 0 -0.3 0 -0.3 0 -0.3 0 -0.3 0 -0.1 0 -57.5 3.3 -1.2 0.1c-19.7 2.1-31.4 12.2-41.1 28.9 -5.9 10.3-8.9 21.2-9.1 33.1l0 0.4c0 17 6.4 32.7 16.9 44.5 20.5 21.9 40.7 23 68.7 22.5 -0.5 28.1 0.5 48.2 22.5 68.7 11.8 10.6 27.5 16.9 44.5 16.9l0.4 0c11.9-0.2 22.8-3.2 33.1-9.1 16.8-9.7 26.8-21.4 28.9-41.1l0.1-1.2 3.3-57.5 0-0.1 0-0.3 0-0.3 0-0.3 0-0.3 0-0.3 0-0.3 0-0.3 0-0.3 0-0.3 0-0.3 0-0.3 0-0.3 0-0.3 0-0.3 0-0.3 0-0.3 0-0.3 0-0.3 0-0.3 0-0.3 0-0.3 0-0.3 0-0.3 0-0.3 0-0.3 0-0.3 0-0.3 0-0.3 0-0.3 0-0.3 0-0.3 0-0.3 0-0.3 0-0.3 0-0.3 0-0.3 0-0.3 0-0.3 0-0.3 0-0.3 0-0.3 0-0.3 0-0.3 0-0.3 0-0.3 0-0.3 0-0.3 0-0.3 0-0.3 0-0.3 0-0.3 0-0.3 0-0.3 0-0.3 0-0.3 0-0.3 0-0.3 0-0.3 0-0.3 0-0.3 0-0.3 0-0.3 0-0.3 0-0.3 0.1-1 0.1-1 0.1-1 0.1-1 0.1-1 0.1-1 0.1-1 0.1-1 0.1-1 0.1-1 0.1-1 0.1-1 0.1-1 0.1-1 0.1-1 0.1-1 0.1-1 0.1-1 0.1-1 0.1-1 0.1-1 0.1-1 0.1-1 0.1-1 0.1-1 0.1-1 0.1-1 0.1-1 0.1-1 0.1-1 0.1-1 0.1-1 0.1-1 0.1-1 0.1-1 0.1-1 0.1-1 0.1-1 0.1-1 0.1-1 0.1-1 0.1-1 0.1-1 0.1-1 0.1-1 0.1-1 0.1-1 0.1-1 0.1-1 0.1-1 0.1-1 0.1-1 0.1-1 0.1-1 0.1-1 0.1-1 0.1-1 0.1-1 0.1-1 0.1-1 0.1-1 0.1-1 0.1-1 0.1-1 0.1 1 0.1 1 0.1 1 0.1 1 0.1 1 0.1 1 0.1 1 0.1 1 0.1 1 0.1 1 0.1 1 0.1 1 0.1 1 0.1 1 0.1 1 0.1 1 0.1 1 0.1 1 0.1 1 0.1 1 0.1 1 0.1 1 0.1 1 0.1 1 0.1 1 0.1 1 0.1 1 0.1 1 0.1 1 0.1 1 0.1 1 0.1 1 0.1 1 0.1 1 0.1 1 0.1 1 0.1 1 0.1 1 0.1 1 0.1 1 0.1 1 0.1 1 0.1 1 0.1 1 0.1 1 0.1 1 0.1 1 0.1 1 0.1 1 0.1 1 0.1 1 0.1 1 0.1 1 0.1 1 0.1 1 0.1 1 0.1 1 0.1 1 0.1 1 0.1 1 0.1 1 0.1 1 0.1 1 0.1 1 0 0.3 0 0.3 0 0.3 0 0.3 0 0.3 0 0.3 0 0.3 0 0.3 0 0.3 0 0.3 0 0.3 0 0.3 0 0.3 0 0.3 0 0.3 0 0.3 0 0.3 0 0.3 0 0.3 0 0.3 0 0.3 0 0.3 0 0.3 0 0.3 0 0.3 0 0.3 0 0.3 0 0.3 0 0.3 0 0.3 0 0.3 0 0.3 0 0.3 0 0.3 0 0.3 0 0.3 0 0.3 0 0.3 0 0.3 0 0.3 0 0.3 0 0.3 0 0.3 0 0.3 0 0.3 0 0.3 0 0.3 0 0.3 0 0.3 0 0.3 0 0.3 0 0.3 0 0.3 0 0.3 0 0.3 0 0.3 0 0.3 0 0.3 0 0.3 0 0.3 0 0.3 0 0.3 0 0.3 0 0.3 0 0.1 3.3 57.5 0.1 1.2c2.1 19.7 12.2 31.4 28.9 41.1 10.3 5.9 21.2 8.9 33.1 9.1l0.4 0c17 0 32.7-6.4 44.5-16.9 21.9-20.5 23-40.7 22.5-68.7 28.1 0.5 48.2-0.5 68.7-22.5 10.6-11.8 16.9-27.5 16.9-44.5l0-0.4c-0.2-11.9-3.2-22.8-9.1-33.1 -9.7-16.8-21.4-26.8-41.1-28.9l-1.2-0.1 -57.5-3.3 -0.1 0 -0.3 0 -0.3 0 -0.3 0 -0.3 0 -0.3 0 -0.3 0 -0.3 0 -0.3 0 -0.3 0 -0.3 0 -0.3 0 -0.3 0 -0.3 0 -0.3 0 -0.3 0 -0.3 0 -0.3 0 -0.3 0 -0.3 0 -0.3 0 -0.3 0 -0.3 0 -0.3 0 -0.3 0 -0.3 0 -0.3 0 -0.3 0 -0.3 0 -0.3 0 -0.3 0 -0.3 0 -0.3 0 -0.3 0 -0.3 0 -0.3 0 -0.3 0 -0.3 0 -0.3 0 -0.3 0 -0.3 0 -0.3 0 -0.3 0 -0.3 0 -0.3 0 -0.3 0 -0.3 0 -0.3 0 -0.3 0 -0.3 0 -0.3 0 -0.3 0 -0.3 0 -0.3 0 -0.3 0 -0.3 0 -0.3 0 -0.3 0 -0.3 0 -0.3 0 -0.3 0 -0.3 0 -0.3 0 -0.3 0 -0.3 0 -1-0.1 -1-0.1 -1-0.1 -1-0.1 -1-0.1 -1-0.1 -1-0.1 -1-0.1 -1-0.1 -1-0.1 -1-0.1 -1-0.1 -1-0.1 -1-0.1 -1-0.1 -1-0.1 -1-0.1 -1-0.1 -1-0.1 -1-0.1 -1-0.1 -1-0.1 -1-0.1 -1-0.1 -1-0.1 -1-0.1 -1-0.1 -1-0.1 -1-0.1 -1-0.1 -1-0.1 -1-0.1 -1-0.1 -1-0.1 -1-0.1 -1-0.1 -1-0.1 -1-0.1 -1-0.1 -1-0.1 -1-0.1 -1-0.1 -1-0.1 -1-0.1 -1-0.1 -1-0.1 -1-0.1 -1-0.1 -1-0.1 -1-0.1 -1-0.1 -1-0.1 -1-0.1 -1-0.1 -1-0.1 -1-0.1 -1-0.1 -1-0.1 -1-0.1 -1-0.1 -1-0.1 -1-0.1 -1-0.1 -1-0.1 1-0.1 1-0.1 1-0.1 1-0.1 1-0.1 1-0.1 1-0.1 1-0.1 1-0.1 1-0.1 1-0.1 1-0.1 1-0.1 1-0.1 1-0.1 1-0.1 1-0.1 1-0.1 1-0.1 1-0.1 1-0.1 1-0.1 1-0.1 1-0.1 1-0.1 1-0.1 1-0.1 1-0.1 1-0.1 1-0.1 1-0.1 1-0.1 1-0.1 1-0.1 1-0.1 1-0.1 1-0.1 1-0.1 1-0.1 1-0.1 1-0.1 1-0.1 1-0.1 1-0.1 1-0.1 1-0.1 1-0.1 1-0.1 1-0.1 1-0.1 1-0.1 1-0.1 1-0.1 1-0.1 1-0.1 1-0.1 1-0.1 1-0.1 1-0.1 1-0.1 1-0.1 1-0.1 1-0.1 1-0.1 0.3 0 0.3 0 0.3 0 0.3 0 0.3 0 0.3 0 0.3 0 0.3 0 0.3 0 0.3 0 0.3 0 0.3 0 0.3 0 0.3 0 0.3 0 0.3 0 0.3 0 0.3 0 0.3 0 0.3 0 0.3 0 0.3 0 0.3 0 0.3 0 0.3 0 0.3 0 0.3 0 0.3 0 0.3 0 0.3 0 0.3 0 0.3 0 0.3 0 0.3 0 0.3 0 0.3 0 0.3 0 0.3 0 0.3 0 0.3 0 0.3 0 0.3 0 0.3 0 0.3 0 0.3 0 0.3 0 0.3 0 0.3 0 0.3 0 0.3 0 0.3 0 0.3 0 0.3 0 0.3 0 0.3 0 0.3 0 0.3 0 0.3 0 0.3 0 0.3 0 0.3 0 0.3 0 0.3 0 0.3 0 0.1 0 57.5-3.3 1.2-0.1c19.7-2.1 31.4-12.2 41.1-28.9 5.9-10.3 8.9-21.2 9.1-33.1l0-0.4c0-17-6.4-32.7-16.9-44.5 -20.5-21.9-40.7-23-68.7-22.5 0.5-28.1-0.5-48.2-22.5-68.7 -11.8-10.6-27.5-16.9-44.5-16.9l-0.4 0c-11.9 0.2-22.8 3.2-33.1 9.1 -16.8 9.7-26.8 21.4-28.9 41.1l-0.1 1.2 -3.3 57.5 0 0.1 0 0.3 0 0.3 0 0.3 0 0.3 0 0.3 0 0.3 0 0.3 0 0.3 0 0.3 0 0.3 0 0.3 0 0.3 0 0.3 0 0.3 0 0.3 0 0.3 0 0.3 0 0.3 0 0.3 0 0.3 0 0.3 0 0.3 0 0.3 0 0.3 0 0.3 0 0.3 0 0.3 0 0.3 0 0.3 0 0.3 0 0.3 0 0.3 0 0.3 0 0.3 0 0.3 0 0.3 0 0.3 0 0.3 0 0.3 0 0.3 0 0.3 0 0.3 0 0.3 0 0.3 0 0.3 0 0.3 0 0.3 0 0.3 0 0.3 0 0.3 0 0.3 0 0.3 0 0.3 0 0.3 0 0.3 0 0.3 0 0.3 0 0.3 0 0.3 0 0.3 0 0.3 0 0.3 0 0.3 0 0.3 -0.1 1 -0.1 1 -0.1 1 -0.1 1 -0.1 1 -0.1 1 -0.1 1 -0.1 1 -0.1 1 -0.1 1 -0.1 1 -0.1 1 -0.1 1 -0.1 1 -0.1 1 -0.1 1 -0.1 1 -0.1 1 -0.1 1 -0.1 1 -0.1 1 -0.1 1 -0.1 1 -0.1 1 -0.1 1 -0.1 1 -0.1 1 -0.1 1 -0.1 1 -0.1 1 -0.1 1 -0.1 1 -0.1 1 -0.1 1 -0.1 1 -0.1 1 -0.1 1 -0.1 1 -0.1 1 -0.1 1 -0.1 1 -0.1 1 -0.1 1 -0.1 1 -0.1 1 -0.1 1 -0.1 1 -0.1 1 -0.1 1 -0.1 1 -0.1 1 -0.1 1 -0.1 1 -0.1 1 -0.1 1 -0.1 1 -0.1 1 -0.1 1 -0.1 1 -0.1 1 -0.1 1 -0.1 1 -0.1 1 -0.1 1 -0.1-1 -0.1-1 -0.1-1 -0.1-1 -0.1-1 -0.1-1 -0.1-1 -0.1-1 -0.1-1 -0.1-1 -0.1-1 -0.1-1 -0.1-1 -0.1-1 -0.1-1 -0.1-1 -0.1-1 -0.1-1 -0.1-1 -0.1-1 -0.1-1 -0.1-1 -0.1-1 -0.1-1 -0.1-1 -0.1-1 -0.1-1 -0.1-1 -0.1-1 -0.1-1 -0.1-1 -0.1-1 -0.1-1 -0.1-1 -0.1-1 -0.1-1 -0.1-1 -0.1-1 -0.1-1 -0.1-1 -0.1-1 -0.1-1 -0.1-1 -0.1-1 -0.1-1 -0.1-1 -0.1-1 -0.1-1 -0.1-1 -0.1-1 -0.1-1 -0.1-1 -0.1-1 -0.1-1 -0.1-1 -0.1-1 -0.1-1 -0.1-1 -0.1-1 -0.1-1 -0.1-1 -0.1-1 -0.1-1 -0.1-1 0-0.3 0-0.3 0-0.3 0-0.3 0-0.3 0-0.3 0-0.3 0-0.3 0-0.3 0-0.3 0-0.3 0-0.3 0-0.3 0-0.3 0-0.3 0-0.3 0-0.3 0-0.3 0-0.3 0-0.3 0-0.3 0-0.3 0-0.3 0-0.3 0-0.3 0-0.3 0-0.3 0-0.3 0-0.3 0-0.3 0-0.3 0-0.3 0-0.3 0-0.3 0-0.3 0-0.3 0-0.3 0-0.3 0-0.3 0-0.3 0-0.3 0-0.3 0-0.3 0-0.3 0-0.3 0-0.3 0-0.3 0-0.3 0-0.3 0-0.3 0-0.3 0-0.3 0-0.3 0-0.3 0-0.3 0-0.3 0-0.3 0-0.3 0-0.3 0-0.3 0-0.3 0-0.3 0-0.3 0-0.3 0-0.1 -3.3-57.5 -0.1-1.2c-2.1-19.7-12.2-31.4-28.9-41.1 -10.3-5.9-21.2-8.9-33.1-9.1l-0.4 0c-17 0-32.7 6.4-44.5 16.9 -21.9 20.5-23 40.7-22.5 68.7 -28.1-0.5-48.2 0.5-68.7 22.5 -10.6 11.8-16.9 27.5-16.9 44.5l0 0.4c0.2 11.9 3.2 22.8 9.1 33.1 9.7 16.8 21.4 26.8 41.1 28.9z" style="fill:#33ae33;stroke-width:15;stroke:#33ae33"/>
</svg>
