<svg version="1" xmlns="http://www.w3.org/2000/svg" width="933.333" height="933.333" viewBox="0 0 700.000000 700.000000"><path d="M245.8 16.5c-.2.2-2.5.6-5.3.9-15.9 2.1-33.7 8.4-49 17.4-13.8 8-31.5 24.3-40.6 37.2-7.5 10.5-17.5 30.7-19.3 38.5-2.3 10.4-4.2 16.8-5.1 17-16.2 4.3-25.7 7.4-33.2 11-27.5 13-51.4 36.7-64 63.5-3.6 7.6-8.3 20.2-8.9 23.9-.2.7-.7 3.4-1.3 6-2 9-2.3 11.8-2.6 25.7-.6 29.7 6.3 51.3 25.6 80.3l8 12-6.9 10.3c-13.3 19.9-18.6 30.7-22.6 46-3.3 12.6-3.8 16.1-4.1 31.9-.9 46.4 21.3 88.3 60.8 114.2 14 9.3 31.9 16.6 46.9 19.2 1.8.3 3.3.7 3.3.8.1.1 1.1 4.5 2.4 9.8 4.6 19.8 17 42.7 31.6 58.7 9.8 10.6 26.1 22.9 38 28.5 23 10.9 38.1 14.2 63 14 28.3-.2 50.7-8.2 80.3-28.9 6.4-4.5 8.6-5.2 9.7-3.3 1.2 1.9 20.7 14.2 30.4 19.1 26.7 13.6 60 17.1 90.1 9.4 8.7-2.3 24.6-8.4 29.2-11.3 2.1-1.2 4-2.3 4.3-2.3.5 0 11.6-7.1 12.5-8 .3-.3 2.8-2.3 5.5-4.5 22.4-17.7 39.7-45.5 46-73.7.9-4.3 2.1-7.8 2.6-7.8 1.4 0 1.3 0 11.1-2.6 10-2.7 24-8.3 30-12.1 2.1-1.3 4-2.3 4.4-2.3 1.6 0 18-12.7 24.1-18.8 13.2-12.8 22.4-26.1 29.7-42.9 4.5-10.2 9-25.8 10.2-35.3 2.1-17.1.6-38-4.1-54.4-4.1-14.3-9-23.9-22.6-44.3-5.6-8.4-6.6-10.3-5.4-11.3 1.8-1.5 14.2-20.7 18.4-28.4 4.9-9.1 7.8-16.6 10.6-27 3.2-12.6 4-19.4 3.9-35.2-.4-52.5-32.6-100.4-81.5-121-8.4-3.5-19.5-7-25.9-8-4.2-.7-3.8-.4-4.4-3.4-3.8-19.5-12.3-38.6-24.8-55.8-5.6-7.7-19.8-21.6-28.1-27.5-13.3-9.5-27.8-16.5-42.8-20.7-7.7-2.1-9-2.4-19.9-3.9-6.7-.9-31.6-.7-36 .3-1.4.3-5 1.1-8 1.7-16.2 3.2-30.6 9.9-51.6 23.9l-10.6 7.1-10.3-7c-28.2-19.2-48.3-26.1-78.2-26.6-8.4-.1-15.3-.1-15.5 0zM277.5 77c19.6 4.9 39 18.6 46.3 33 2.5 4.8 3.3 7.1 4.7 13 .9 4 1.7 13.1 3.1 38.5.3 6 .8 13.2.9 16 .2 2.7.6 13.3 1 23.5.7 25.3 1.4 41.1 1.9 43.5.3 1.9 1.2 9.5 2.1 19.5.2 2.5.7 6.7 1 9.5.3 2.7.7 7.5 1 10.5.3 3 .7 7.1 1 9 .2 1.9.7 6.6 1 10.5.4 3.8.8 7.2 1.1 7.4.2.3 4.5.5 9.4.5 10.2.1 9.5 1 10.5-11.4.3-3.6.8-8.1 1-10 .3-1.9.7-6.7 1.1-10.5.3-3.9.7-8.1.9-9.5.2-1.4.7-5.9 1-10 .3-4.1.7-9.1 1-11 1.4-11.4 1.7-16.3 2-33 .2-10.2.6-22.8.9-28 .4-5.2.8-13.3 1.1-18 2.5-45.7 2.9-49.1 8.1-59.7 6.3-13.1 24.9-27 43.4-32.6 6.2-1.9 19.7-3.5 25-3.1 13.2 1.2 18.7 2.7 29.7 8 19.3 9.5 34.1 27.7 39.1 48.4 2.6 10.5 3.1 16.1 3.1 36.6l.1 16.2h15c25.7 0 38.2 1.9 50.5 7.6 31.7 14.6 49.2 49.5 42 83.5-4.3 20.4-18.2 40.9-33.1 48.8-9.7 5.2-15.6 6.1-46.9 7.8-4.9.3-12.1.7-16 1-15.8 1-31 1.7-48.5 2.1-10.2.2-19.8.6-21.5.9-1.6.2-5.5.7-8.5 1-15.7 1.4-18.7 1.7-21 2-1.4.2-6.1.7-10.5 1.1-4.4.3-8.8.8-9.8 1-.9.1-5.4.6-10 1-4.5.3-8.4.8-8.7 1.1-.6.6-.7 18.3-.1 18.8.3.1 4.4.6 9 1 4.7.4 9.2.8 10 1 .9.1 5.2.6 9.6.9 4.4.4 9.1.9 10.5 1.1 3 .4 11.2 1.3 20 2.1 3.6.3 7.9.8 9.5 1 3.4.5 18.7 1.1 44.5 1.9 9.6.3 20.4.7 24 1 3.6.2 11 .7 16.5 1 29.1 1.6 31.3 1.9 39.1 4.1 14.4 4.1 27.8 17.4 36.8 36.5 2.5 5.3 6.3 19.2 6.5 23.4.5 16.6-.9 25.9-5.7 37.2-3.8 9.2-9 16.9-16.1 23.8-18.4 18-33.6 22.8-71.8 22.8H520l-.1 16.6c-.1 16.7-.3 20.8-1.5 29.1-.3 2.5-.5 4.5-.5 4.5.1 0-.9 3.2-2.2 7-4.2 12.3-8.5 19.4-17.6 29-22.5 23.8-58.5 29.6-88.5 14.4-14.4-7.4-24.9-16.9-29.9-27.2-5.5-11.3-5.8-13.6-8.2-60.2-.2-5-.7-13.1-1.1-18-.3-5-.8-17.6-1-28-.1-10.5-.5-21.3-.8-24-.3-2.8-.8-7-1.1-9.5-.3-2.5-.7-7-1-10-.3-3-.7-7.3-1-9.5-.5-4.8-1.2-11.5-2.1-21.4-.3-4.1-.8-8.1-.9-9-.2-.9-.4-3.2-.4-5.1-.2-5.8-1-6.3-10.5-6.3-4.8 0-8.8.2-9.1.4-.2.3-.6 3.4-1 6.9-.3 3.6-.7 8.1-1 10-.2 1.9-.7 6.4-1 10-.3 3.6-.8 8.3-1 10.5-.6 4.9-1.2 10.9-2.1 20-.4 3.8-.8 8.1-1 9.5-.5 4.3-1.3 21.7-2 43.5-.3 11.5-.7 22.6-.9 24.5-.2 1.9-.6 8.2-.9 14-1.4 26.3-1.8 30.9-2.7 36.4-3.1 17.9-13 30.5-32 41-30 16.5-66 12.2-89.1-10.7-11.1-10.9-17.2-20.9-20.8-33.9-2.5-9.5-3.3-17.7-3.4-37.8l-.1-16.5-15.3-.1c-38.9-.3-53.8-5.2-72.2-23.5-25.5-25.5-28.6-65.4-7.7-96.4 8.1-12 15.8-18.5 26.7-22.8 7.9-3.1 13.2-3.7 43-5.3 6.9-.3 14.5-.8 17-1 2.5-.2 12.6-.6 22.5-.9 27.4-.8 41.7-1.4 44.5-1.9 1.4-.3 5.7-.7 9.5-1 3.9-.4 9-.8 11.5-1.1 2.5-.3 6.3-.7 8.5-1 2.2-.2 7.2-.7 11-1 3.9-.4 7.9-.8 9-1 1.1-.1 6-.6 10.8-1l8.7-.7v-9.9c0-5.5-.3-9.8-.7-9.7-.5.1-4.2-.2-8.3-.6-4.1-.4-9.3-.9-11.5-1.1-7.1-.7-25.9-2.6-29.5-3-1.9-.2-6.6-.7-10.5-1.1-3.8-.3-7.9-.8-9-1.1-1.1-.2-10.3-.6-20.5-.8-18.2-.4-38.6-1.2-48.5-2-2.7-.2-10.4-.7-17-1-27.2-1.4-31.6-2-39.4-4.6-17.5-6.1-32.6-24.7-39.2-48.5-2.2-8-3.1-25.3-1.6-31.7.4-1.5.9-3.9 1.2-5.3 2.2-10.5 9.7-24.2 18.4-33.2 10.9-11.4 21.4-17.7 35.1-21 11.8-2.9 16.8-3.4 36.4-3.4l17.1-.1.1-19.1c.2-21.6 1.7-32.3 6.4-43.8 10-24.5 34-42.7 60-45.5 3-.3 5.6-.6 5.7-.8 1-.7 15.2.9 21.8 2.5z"/></svg>